<svg width="1280" height="594" viewBox="0 0 1280 594" fill="none" xmlns="http://www.w3.org/2000/svg">
<path d="M207.105 333.832C205.455 346.43 297.01 237.543 305.543 128.258C314.076 18.9738 181.216 -40.5508 150.995 117.181C120.873 0.873686 -28.1411 54.0672 31.9252 184.521C77.3454 283.166 208.756 321.235 207.105 333.832Z" stroke="#909ADE" stroke-opacity="0.57" stroke-width="11"/>
<path d="M108.323 190.987L108.82 192.758L96.3844 196.242L95.888 194.471L108.323 190.987ZM96.2378 194.373L97.8661 200.184L95.7108 200.788L94.0713 194.98L96.2378 194.373ZM110.219 190.455L111.821 196.262L109.666 196.866L108.041 191.066L110.219 190.455ZM102.083 176.926L102.583 178.709L95.3837 180.726L94.8842 178.943L102.083 176.926ZM103.957 176.401L108.56 192.831L106.393 193.438L101.79 177.008L103.957 176.401ZM94.1394 179.152L96.3173 178.542L97.8315 185.249C98.0646 186.255 98.2277 187.199 98.3208 188.081C98.4118 188.956 98.449 189.77 98.4323 190.521C98.4156 191.272 98.3487 191.96 98.2318 192.585C98.1127 193.202 97.9548 193.754 97.7581 194.239C97.5593 194.717 97.3264 195.131 97.0596 195.481C96.7981 195.822 96.5129 196.093 96.2039 196.293L95.2109 196.571L94.7145 194.8L95.4141 194.604C95.5507 194.338 95.6872 193.971 95.8238 193.503C95.9678 193.033 96.0755 192.447 96.1467 191.745C96.2233 191.034 96.227 190.193 96.158 189.223C96.0964 188.25 95.9245 187.13 95.6423 185.862L94.1394 179.152ZM120.286 189.789C119.436 190.027 118.625 190.1 117.853 190.008C117.086 189.907 116.381 189.662 115.737 189.275C115.1 188.885 114.549 188.366 114.083 187.718C113.618 187.069 113.265 186.316 113.024 185.459L112.892 184.985C112.613 183.992 112.512 183.067 112.589 182.21C112.663 181.345 112.876 180.571 113.228 179.888C113.581 179.206 114.037 178.635 114.599 178.178C115.16 177.72 115.783 177.396 116.468 177.204C117.341 176.959 118.135 176.899 118.851 177.023C119.575 177.145 120.216 177.419 120.774 177.847C121.33 178.268 121.808 178.815 122.208 179.49C122.606 180.157 122.925 180.92 123.165 181.778L123.428 182.714L114.31 185.269L113.832 183.565L120.863 181.595L120.818 181.437C120.636 180.904 120.376 180.409 120.037 179.952C119.706 179.493 119.287 179.156 118.78 178.941C118.274 178.726 117.663 178.719 116.949 178.919C116.475 179.052 116.067 179.276 115.725 179.591C115.381 179.898 115.121 180.287 114.945 180.758C114.768 181.23 114.68 181.77 114.68 182.378C114.681 182.986 114.784 183.659 114.99 184.397L115.123 184.871C115.286 185.45 115.517 185.973 115.819 186.44C116.125 186.898 116.487 187.275 116.903 187.573C117.326 187.868 117.79 188.062 118.295 188.156C118.808 188.248 119.35 188.214 119.922 188.053C120.659 187.847 121.241 187.521 121.668 187.077C122.096 186.633 122.43 186.105 122.673 185.493L124.218 186.144C124.066 186.616 123.838 187.09 123.533 187.565C123.228 188.04 122.81 188.473 122.279 188.865C121.755 189.256 121.091 189.563 120.286 189.789ZM134.344 172.439L134.828 174.165L128.926 175.819L128.442 174.092L134.344 172.439ZM136.183 171.923L139.604 184.133L137.517 184.718L134.096 172.508L136.183 171.923ZM127.935 174.235L130.033 173.646L131.368 179.625C131.57 180.55 131.709 181.379 131.785 182.113C131.866 182.837 131.875 183.475 131.81 184.029C131.754 184.58 131.62 185.056 131.407 185.456C131.2 185.847 130.911 186.175 130.539 186.441C130.166 186.7 129.708 186.906 129.166 187.057L128.512 187.241L127.996 185.401L128.438 185.241C128.756 185.128 129.009 184.976 129.199 184.785C129.396 184.591 129.539 184.349 129.628 184.056C129.714 183.756 129.75 183.393 129.736 182.967C129.73 182.539 129.676 182.042 129.575 181.479C129.481 180.913 129.347 180.26 129.173 179.522L127.935 174.235ZM151.777 178.471L150.016 172.185C149.881 171.704 149.666 171.314 149.371 171.015C149.082 170.707 148.718 170.508 148.28 170.42C147.841 170.332 147.34 170.367 146.776 170.525C146.249 170.673 145.812 170.893 145.464 171.185C145.123 171.475 144.881 171.799 144.738 172.155C144.602 172.51 144.581 172.856 144.676 173.195L142.588 173.78C142.466 173.343 142.458 172.879 142.563 172.387C142.669 171.895 142.884 171.417 143.208 170.953C143.538 170.479 143.971 170.058 144.509 169.688C145.052 169.309 145.692 169.016 146.429 168.809C147.317 168.561 148.141 168.492 148.902 168.603C149.671 168.712 150.333 169.018 150.887 169.519C151.447 170.012 151.855 170.713 152.11 171.623L153.703 177.31C153.817 177.717 153.972 178.14 154.168 178.58C154.372 179.017 154.592 179.382 154.827 179.673L154.878 179.853L152.7 180.463C152.527 180.252 152.355 179.956 152.183 179.574C152.009 179.185 151.874 178.817 151.777 178.471ZM150.649 173.055L151.082 174.515L148.972 175.107C148.378 175.273 147.861 175.471 147.422 175.699C146.981 175.92 146.629 176.169 146.366 176.445C146.102 176.722 145.928 177.026 145.843 177.359C145.755 177.683 145.764 178.034 145.869 178.41C145.977 178.794 146.161 179.119 146.423 179.387C146.685 179.654 147.015 179.833 147.413 179.925C147.818 180.006 148.275 179.975 148.787 179.832C149.426 179.653 149.953 179.359 150.366 178.951C150.779 178.543 151.074 178.104 151.25 177.633C151.434 177.159 151.485 176.735 151.404 176.36L152.577 177.115C152.613 177.445 152.568 177.835 152.443 178.284C152.317 178.733 152.108 179.189 151.816 179.652C151.529 180.106 151.151 180.524 150.683 180.907C150.219 181.28 149.657 181.56 148.994 181.745C148.167 181.977 147.396 182.019 146.681 181.87C145.973 181.72 145.371 181.422 144.873 180.977C144.38 180.523 144.039 179.957 143.85 179.28C143.666 178.626 143.633 178.014 143.75 177.446C143.864 176.87 144.116 176.35 144.504 175.884C144.891 175.41 145.399 174.992 146.027 174.63C146.656 174.267 147.388 173.968 148.223 173.735L150.649 173.055ZM161.259 174.5L164.395 164.019L166.494 163.431L169.915 175.64L167.816 176.228L165.321 167.325L162.185 177.806L160.109 178.388L156.688 166.178L158.764 165.596L161.259 174.5ZM162.016 159.915L163.709 159.44C163.873 160.027 163.884 160.588 163.742 161.123C163.598 161.65 163.309 162.112 162.877 162.509C162.444 162.906 161.882 163.202 161.19 163.395C160.144 163.688 159.239 163.642 158.474 163.256C157.714 162.86 157.209 162.219 156.961 161.331L158.653 160.857C158.778 161.301 159.015 161.656 159.366 161.923C159.716 162.19 160.2 162.237 160.817 162.064C161.419 161.895 161.8 161.606 161.961 161.196C162.122 160.786 162.14 160.359 162.016 159.915ZM182.169 159.039L184.257 158.454L185.357 163.074C185.636 164.246 185.785 165.283 185.803 166.187C185.821 167.09 185.743 167.887 185.571 168.576C185.397 169.258 185.156 169.857 184.846 170.374C184.544 170.888 184.209 171.343 183.841 171.738L182.803 172.029L182.382 170.309L182.807 170.178C182.973 169.815 183.13 169.447 183.277 169.073C183.421 168.692 183.531 168.259 183.607 167.776C183.68 167.284 183.693 166.709 183.646 166.049C183.605 165.379 183.475 164.583 183.258 163.663L182.169 159.039ZM182.688 158.893L190.034 156.835L193.455 169.045L191.367 169.629L188.487 159.35L183.229 160.823L182.688 158.893ZM181.848 170.447L194.543 166.89L196.032 172.205L193.945 172.79L192.936 169.19L184.416 171.577L185.425 175.177L183.326 175.765L181.848 170.447ZM197.307 161.527L197.234 161.268C196.987 160.388 196.887 159.536 196.932 158.712C196.975 157.88 197.159 157.119 197.484 156.427C197.808 155.728 198.268 155.128 198.867 154.628C199.463 154.12 200.186 153.747 201.036 153.509C201.893 153.269 202.709 153.211 203.482 153.335C204.26 153.449 204.969 153.721 205.609 154.151C206.254 154.57 206.811 155.124 207.279 155.812C207.746 156.493 208.102 157.273 208.349 158.154L208.422 158.413C208.668 159.293 208.769 160.145 208.724 160.969C208.679 161.793 208.491 162.556 208.16 163.257C207.835 163.949 207.374 164.548 206.778 165.056C206.187 165.554 205.463 165.923 204.606 166.164C203.748 166.404 202.934 166.466 202.163 166.349C201.39 166.225 200.681 165.953 200.036 165.533C199.396 165.104 198.843 164.549 198.377 163.869C197.91 163.188 197.553 162.408 197.307 161.527ZM199.322 160.683L199.394 160.942C199.565 161.552 199.798 162.107 200.093 162.609C200.385 163.103 200.732 163.517 201.134 163.85C201.543 164.182 202 164.407 202.504 164.525C203.005 164.636 203.546 164.611 204.125 164.448C204.697 164.288 205.164 164.032 205.528 163.678C205.897 163.315 206.166 162.887 206.336 162.393C206.506 161.899 206.588 161.365 206.581 160.791C206.58 160.207 206.494 159.611 206.323 159.001L206.25 158.742C206.082 158.14 205.847 157.593 205.547 157.101C205.252 156.599 204.9 156.183 204.491 155.851C204.087 155.51 203.633 155.28 203.13 155.162C202.633 155.041 202.096 155.062 201.516 155.224C200.945 155.385 200.474 155.646 200.105 156.009C199.744 156.37 199.476 156.802 199.3 157.306C199.13 157.799 199.05 158.337 199.059 158.919C199.065 159.493 199.153 160.081 199.322 160.683ZM217.829 143.315L219.544 142.835C219.751 143.572 219.802 144.19 219.699 144.69C219.593 145.182 219.377 145.599 219.052 145.942C218.733 146.283 218.346 146.582 217.891 146.839C217.444 147.094 216.976 147.351 216.488 147.61C215.879 147.926 215.338 148.309 214.863 148.759C214.394 149.198 214.034 149.737 213.783 150.376C213.539 151.012 213.441 151.778 213.489 152.673C213.545 153.566 213.788 154.622 214.218 155.84L214.509 156.878L212.794 157.358L212.503 156.32C212.113 154.929 211.905 153.677 211.877 152.565C211.857 151.451 211.991 150.468 212.28 149.616C212.569 148.765 212.989 148.034 213.54 147.425C214.099 146.814 214.763 146.316 215.531 145.931C216.086 145.653 216.557 145.392 216.942 145.146C217.325 144.892 217.595 144.622 217.75 144.335C217.912 144.046 217.938 143.706 217.829 143.315ZM217.043 150.022C217.84 149.799 218.59 149.739 219.292 149.842C219.995 149.945 220.634 150.184 221.209 150.559C221.785 150.933 222.28 151.427 222.695 152.041C223.116 152.645 223.437 153.342 223.659 154.132L223.728 154.38C223.966 155.23 224.063 156.055 224.02 156.854C223.981 157.644 223.801 158.376 223.479 159.05C223.162 159.715 222.707 160.293 222.115 160.783C221.529 161.272 220.808 161.636 219.95 161.876C219.093 162.117 218.283 162.181 217.522 162.07C216.768 161.957 216.079 161.699 215.456 161.298C214.83 160.889 214.292 160.359 213.841 159.706C213.396 159.044 213.054 158.287 212.816 157.437L212.747 157.189C212.694 157.001 212.676 156.807 212.693 156.608C212.71 156.408 212.742 156.201 212.787 155.985C212.839 155.768 212.878 155.542 212.901 155.308C212.99 154.553 213.194 153.819 213.513 153.104C213.84 152.388 214.292 151.758 214.87 151.215C215.453 150.662 216.178 150.265 217.043 150.022ZM217.114 151.84C216.347 152.055 215.764 152.409 215.367 152.901C214.977 153.392 214.744 153.964 214.667 154.619C214.589 155.265 214.645 155.927 214.834 156.604L214.904 156.852C215.064 157.424 215.284 157.947 215.562 158.42C215.841 158.894 216.172 159.292 216.554 159.615C216.942 159.928 217.378 160.139 217.863 160.246C218.355 160.352 218.891 160.324 219.47 160.161C220.049 159.999 220.518 159.746 220.876 159.402C221.234 159.059 221.493 158.653 221.655 158.186C221.814 157.711 221.889 157.199 221.881 156.65C221.873 156.1 221.789 155.54 221.629 154.968L221.56 154.72C221.416 154.208 221.213 153.742 220.949 153.321C220.685 152.9 220.364 152.552 219.987 152.276C219.617 151.999 219.189 151.818 218.703 151.735C218.223 151.643 217.693 151.678 217.114 151.84ZM229.021 148.443L233.099 163L231 163.588L226.264 146.684L228.182 146.146L229.021 148.443ZM238.271 149.794L238.337 150.031C238.586 150.919 238.712 151.772 238.714 152.591C238.714 153.402 238.589 154.143 238.339 154.814C238.096 155.482 237.724 156.053 237.224 156.525C236.724 156.998 236.094 157.341 235.334 157.554C234.559 157.771 233.839 157.835 233.173 157.746C232.507 157.657 231.898 157.425 231.348 157.052C230.797 156.679 230.301 156.185 229.861 155.57C229.429 154.953 229.047 154.228 228.717 153.396L228.363 152.132C228.2 151.204 228.143 150.348 228.191 149.564C228.239 148.78 228.395 148.079 228.66 147.461C228.931 146.833 229.322 146.306 229.835 145.878C230.346 145.443 230.985 145.118 231.753 144.903C232.52 144.688 233.243 144.647 233.922 144.782C234.598 144.909 235.216 145.19 235.776 145.625C236.337 146.06 236.826 146.633 237.244 147.344C237.667 148.045 238.01 148.861 238.271 149.794ZM236.239 150.619L236.172 150.382C236.001 149.773 235.777 149.219 235.5 148.721C235.22 148.215 234.888 147.797 234.503 147.467C234.124 147.127 233.695 146.898 233.216 146.781C232.735 146.656 232.208 146.674 231.637 146.834C231.11 146.981 230.676 147.2 230.336 147.49C230.003 147.778 229.744 148.114 229.559 148.499C229.373 148.876 229.248 149.284 229.185 149.723C229.127 150.154 229.114 150.587 229.147 151.024L229.966 153.947C230.264 154.431 230.614 154.868 231.015 155.259C231.415 155.642 231.88 155.913 232.412 156.073C232.941 156.225 233.548 156.205 234.233 156.013C234.797 155.855 235.249 155.602 235.59 155.255C235.937 154.898 236.183 154.476 236.331 153.989C236.486 153.499 236.552 152.969 236.531 152.399C236.507 151.822 236.409 151.229 236.239 150.619ZM242.643 148.825L242.57 148.565C242.324 147.685 242.223 146.833 242.268 146.009C242.311 145.178 242.495 144.416 242.82 143.724C243.144 143.025 243.605 142.426 244.203 141.925C244.799 141.418 245.522 141.045 246.372 140.807C247.23 140.566 248.045 140.508 248.818 140.632C249.597 140.747 250.306 141.019 250.945 141.448C251.59 141.868 252.147 142.422 252.616 143.11C253.082 143.79 253.439 144.571 253.685 145.451L253.758 145.71C254.005 146.591 254.105 147.443 254.06 148.267C254.015 149.091 253.827 149.853 253.497 150.554C253.171 151.246 252.71 151.846 252.114 152.353C251.524 152.852 250.8 153.221 249.942 153.461C249.084 153.701 248.27 153.763 247.499 153.647C246.726 153.522 246.017 153.25 245.372 152.831C244.732 152.401 244.179 151.847 243.713 151.166C243.246 150.485 242.89 149.705 242.643 148.825ZM244.658 147.98L244.731 148.24C244.901 148.849 245.134 149.405 245.429 149.906C245.721 150.4 246.069 150.814 246.47 151.148C246.88 151.479 247.336 151.704 247.84 151.823C248.342 151.934 248.882 151.908 249.461 151.746C250.033 151.586 250.501 151.329 250.864 150.976C251.233 150.613 251.502 150.184 251.672 149.69C251.842 149.196 251.924 148.662 251.917 148.088C251.916 147.504 251.83 146.908 251.659 146.299L251.586 146.039C251.418 145.437 251.183 144.89 250.883 144.398C250.589 143.897 250.237 143.48 249.827 143.149C249.423 142.807 248.97 142.578 248.466 142.459C247.97 142.339 247.432 142.359 246.853 142.522C246.281 142.682 245.811 142.943 245.442 143.306C245.08 143.667 244.812 144.1 244.637 144.603C244.467 145.097 244.386 145.635 244.395 146.216C244.402 146.79 244.489 147.378 244.658 147.98ZM258.123 133.206L261.28 145.039L259.396 145.567L255.934 133.819L258.123 133.206ZM260.176 149.219C260.081 148.88 260.102 148.566 260.24 148.276C260.385 147.983 260.661 147.78 261.067 147.666C261.466 147.555 261.803 147.586 262.079 147.76C262.363 147.932 262.552 148.188 262.647 148.526C262.737 148.85 262.706 149.158 262.554 149.453C262.408 149.745 262.136 149.947 261.738 150.059C261.331 150.173 260.99 150.142 260.714 149.968C260.446 149.792 260.266 149.542 260.176 149.219Z" fill="#C4C4C4"/>
<path d="M763.11 505.813L762.383 514.313L761.274 514.218L762.001 505.718L763.11 505.813ZM765.843 506.047L765.764 506.969L759.196 506.407L759.275 505.485L765.843 506.047ZM769.992 512.165L767.919 511.988L767.981 511.123L769.674 511.267C770.009 511.296 770.29 511.287 770.518 511.24C770.749 511.193 770.927 511.108 771.051 510.985C771.175 510.863 771.246 510.704 771.262 510.509C771.275 510.358 771.254 510.222 771.197 510.104C771.145 509.982 771.058 509.878 770.936 509.793C770.814 509.705 770.659 509.634 770.471 509.583C770.288 509.528 770.07 509.49 769.817 509.468L768.433 509.35L767.967 514.791L766.887 514.699L767.428 508.382L769.892 508.593C770.292 508.627 770.649 508.693 770.963 508.79C771.28 508.888 771.545 509.018 771.758 509.182C771.976 509.341 772.136 509.535 772.238 509.764C772.34 509.992 772.378 510.254 772.353 510.55C772.337 510.741 772.282 510.918 772.19 511.083C772.097 511.247 771.969 511.389 771.806 511.509C771.643 511.628 771.447 511.721 771.218 511.788C770.989 511.85 770.73 511.881 770.44 511.88L769.992 512.165ZM769.754 514.944L767.29 514.733L767.902 513.903L769.829 514.068C770.129 514.094 770.381 514.078 770.586 514.021C770.791 513.96 770.948 513.864 771.057 513.732C771.171 513.597 771.236 513.43 771.253 513.231C771.27 513.033 771.234 512.859 771.145 512.711C771.06 512.558 770.921 512.437 770.729 512.346C770.537 512.251 770.291 512.191 769.992 512.165L768.351 512.025L768.437 511.162L770.486 511.337L770.849 511.697C771.193 511.754 771.48 511.865 771.709 512.03C771.938 512.194 772.105 512.393 772.211 512.625C772.316 512.854 772.358 513.097 772.336 513.354C772.311 513.649 772.232 513.905 772.1 514.121C771.972 514.338 771.796 514.513 771.573 514.647C771.35 514.777 771.086 514.868 770.779 514.92C770.473 514.968 770.131 514.976 769.754 514.944ZM774.744 512.26L774.756 512.126C774.795 511.67 774.897 511.254 775.063 510.876C775.229 510.494 775.449 510.17 775.722 509.903C775.996 509.633 776.317 509.433 776.685 509.303C777.053 509.17 777.457 509.122 777.897 509.16C778.341 509.198 778.733 509.314 779.073 509.508C779.417 509.698 779.702 509.95 779.926 510.263C780.154 510.572 780.318 510.929 780.416 511.334C780.515 511.734 780.545 512.162 780.506 512.618L780.495 512.752C780.456 513.207 780.354 513.624 780.188 514.002C780.022 514.38 779.801 514.704 779.523 514.974C779.249 515.241 778.928 515.441 778.56 515.574C778.196 515.703 777.792 515.749 777.348 515.711C776.905 515.673 776.513 515.559 776.172 515.37C775.832 515.176 775.548 514.924 775.319 514.614C775.095 514.301 774.934 513.944 774.835 513.544C774.735 513.143 774.705 512.715 774.744 512.26ZM775.836 512.218L775.824 512.352C775.797 512.668 775.809 512.969 775.859 513.255C775.909 513.538 775.999 513.792 776.129 514.019C776.262 514.246 776.437 514.432 776.652 514.576C776.867 514.715 777.125 514.798 777.424 514.824C777.72 514.849 777.984 514.811 778.216 514.709C778.453 514.604 778.654 514.451 778.82 514.249C778.986 514.048 779.118 513.812 779.216 513.542C779.318 513.269 779.382 512.974 779.409 512.659L779.42 512.525C779.447 512.213 779.433 511.916 779.379 511.633C779.329 511.347 779.237 511.09 779.104 510.863C778.975 510.632 778.803 510.445 778.588 510.301C778.376 510.158 778.121 510.073 777.821 510.047C777.525 510.022 777.259 510.062 777.023 510.167C776.79 510.273 776.589 510.428 776.419 510.633C776.252 510.834 776.12 511.072 776.022 511.346C775.925 511.616 775.863 511.907 775.836 512.218ZM784.238 511.043L783.593 518.574L782.507 518.482L783.256 509.736L784.248 509.821L784.238 511.043ZM788.332 513.299L788.321 513.422C788.282 513.881 788.191 514.302 788.048 514.686C787.906 515.066 787.717 515.391 787.483 515.661C787.252 515.931 786.978 516.133 786.66 516.267C786.343 516.401 785.988 516.451 785.595 516.417C785.194 516.383 784.846 516.286 784.549 516.128C784.253 515.969 784.009 515.754 783.817 515.483C783.624 515.211 783.479 514.893 783.381 514.528C783.286 514.163 783.235 513.757 783.226 513.309L783.282 512.655C783.369 512.192 783.492 511.781 783.652 511.423C783.812 511.064 784.009 510.763 784.241 510.52C784.478 510.274 784.754 510.096 785.069 509.985C785.385 509.871 785.741 509.831 786.138 509.865C786.535 509.899 786.88 510.007 787.175 510.189C787.469 510.367 787.709 510.607 787.895 510.909C788.081 511.212 788.209 511.566 788.281 511.972C788.356 512.374 788.373 512.816 788.332 513.299ZM787.235 513.329L787.246 513.206C787.273 512.891 787.265 512.592 787.222 512.31C787.18 512.024 787.098 511.77 786.976 511.548C786.858 511.322 786.697 511.14 786.493 511.001C786.29 510.858 786.04 510.774 785.745 510.749C785.472 510.726 785.231 510.752 785.02 510.828C784.814 510.905 784.634 511.017 784.48 511.164C784.327 511.308 784.197 511.477 784.09 511.672C783.987 511.863 783.905 512.064 783.844 512.274L783.715 513.786C783.769 514.065 783.856 514.331 783.976 514.585C784.095 514.834 784.266 515.043 784.487 515.211C784.708 515.375 784.996 515.472 785.35 515.502C785.642 515.527 785.898 515.488 786.118 515.386C786.343 515.279 786.533 515.125 786.687 514.923C786.846 514.721 786.97 514.484 787.06 514.213C787.15 513.939 787.208 513.644 787.235 513.329ZM791.884 515.114L795.192 510.758L796.278 510.85L795.737 517.167L794.651 517.074L795.045 512.468L791.738 516.825L790.664 516.733L791.204 510.416L792.279 510.508L791.884 515.114ZM800.619 509.022L800.021 515.117L799.046 515.033L799.486 508.926L800.619 509.022ZM798.77 516.88C798.785 516.705 798.85 516.561 798.966 516.45C799.085 516.338 799.25 516.292 799.46 516.31C799.666 516.327 799.819 516.401 799.917 516.531C800.02 516.661 800.064 516.814 800.049 516.989C800.034 517.157 799.966 517.296 799.842 517.407C799.723 517.518 799.56 517.565 799.354 517.547C799.144 517.529 798.989 517.455 798.891 517.325C798.796 517.196 798.756 517.047 798.77 516.88Z" fill="#C4C4C4"/>
<path d="M760.944 578.335C757.835 582.704 813.793 560.198 838.586 521.155C863.379 482.112 825.136 433.702 782.613 486.519C794.246 437.228 727.665 427.636 724.506 488.11C722.118 533.838 764.053 573.966 760.944 578.335Z" stroke="#909ADE" stroke-opacity="0.57" stroke-width="11"/>
<path d="M1105.27 154.526L1096.89 169.388L1094.93 168.282L1102.4 155.033L1095.07 150.9L1087.6 164.149L1085.63 163.037L1094.01 148.176L1105.27 154.526ZM1104.71 166.68L1104.84 166.445C1105.29 165.649 1105.82 164.976 1106.44 164.426C1107.05 163.869 1107.72 163.462 1108.44 163.204C1109.17 162.939 1109.92 162.842 1110.69 162.912C1111.47 162.976 1112.25 163.224 1113.02 163.658C1113.79 164.095 1114.41 164.632 1114.87 165.267C1115.34 165.899 1115.64 166.593 1115.79 167.349C1115.95 168.102 1115.95 168.887 1115.79 169.705C1115.64 170.516 1115.34 171.32 1114.89 172.116L1114.76 172.351C1114.31 173.147 1113.78 173.82 1113.16 174.37C1112.55 174.92 1111.88 175.325 1111.15 175.586C1110.43 175.844 1109.68 175.941 1108.9 175.878C1108.13 175.811 1107.35 175.559 1106.58 175.122C1105.8 174.684 1105.18 174.151 1104.72 173.523C1104.26 172.888 1103.96 172.194 1103.8 171.441C1103.65 170.685 1103.65 169.901 1103.8 169.09C1103.96 168.28 1104.26 167.476 1104.71 166.68ZM1106.73 167.51L1106.59 167.745C1106.28 168.296 1106.05 168.853 1105.91 169.416C1105.76 169.972 1105.72 170.51 1105.76 171.03C1105.82 171.554 1105.98 172.036 1106.25 172.477C1106.53 172.91 1106.93 173.275 1107.45 173.57C1107.97 173.862 1108.48 174.012 1108.99 174.02C1109.51 174.024 1110 173.913 1110.47 173.684C1110.94 173.456 1111.38 173.136 1111.78 172.726C1112.19 172.313 1112.55 171.831 1112.86 171.28L1112.99 171.045C1113.3 170.501 1113.52 169.948 1113.66 169.389C1113.81 168.826 1113.85 168.282 1113.8 167.758C1113.75 167.231 1113.6 166.748 1113.33 166.307C1113.06 165.871 1112.67 165.505 1112.14 165.209C1111.62 164.918 1111.11 164.769 1110.59 164.765C1110.08 164.763 1109.58 164.879 1109.1 165.11C1108.63 165.338 1108.2 165.661 1107.79 166.078C1107.39 166.488 1107.03 166.966 1106.73 167.51ZM1123.83 181.276L1132.4 174.861L1134.22 175.886L1123.07 184.155L1121.76 183.418L1123.09 169.611L1124.91 170.636L1123.83 181.276ZM1124.36 170.325L1118.13 181.369L1116.24 180.304L1122.47 169.26L1124.36 170.325ZM1126.64 186.17L1132.87 175.126L1134.77 176.197L1128.54 187.241L1126.64 186.17ZM1136.11 184.395L1136.25 184.16C1136.7 183.364 1137.23 182.691 1137.84 182.141C1138.46 181.584 1139.13 181.177 1139.85 180.919C1140.57 180.654 1141.32 180.557 1142.1 180.627C1142.88 180.691 1143.66 180.939 1144.43 181.373C1145.2 181.811 1145.82 182.347 1146.28 182.982C1146.74 183.614 1147.05 184.308 1147.2 185.064C1147.36 185.817 1147.36 186.603 1147.2 187.42C1147.05 188.231 1146.75 189.035 1146.3 189.831L1146.17 190.066C1145.72 190.862 1145.19 191.535 1144.57 192.085C1143.96 192.635 1143.28 193.04 1142.55 193.301C1141.83 193.559 1141.08 193.656 1140.3 193.593C1139.53 193.527 1138.76 193.275 1137.99 192.837C1137.21 192.399 1136.59 191.867 1136.13 191.238C1135.67 190.603 1135.36 189.909 1135.21 189.156C1135.06 188.4 1135.06 187.617 1135.21 186.806C1135.37 185.995 1135.67 185.191 1136.11 184.395ZM1138.14 185.225L1138 185.46C1137.69 186.011 1137.46 186.568 1137.32 187.131C1137.17 187.687 1137.13 188.225 1137.17 188.745C1137.23 189.269 1137.39 189.752 1137.66 190.192C1137.94 190.625 1138.34 190.99 1138.86 191.286C1139.38 191.577 1139.89 191.727 1140.4 191.735C1140.91 191.74 1141.41 191.628 1141.88 191.399C1142.35 191.171 1142.78 190.852 1143.19 190.442C1143.6 190.028 1143.96 189.546 1144.27 188.995L1144.4 188.76C1144.71 188.216 1144.93 187.664 1145.07 187.104C1145.21 186.541 1145.26 185.998 1145.21 185.474C1145.16 184.947 1145.01 184.463 1144.73 184.023C1144.47 183.586 1144.07 183.22 1143.55 182.925C1143.03 182.633 1142.52 182.485 1142 182.48C1141.49 182.479 1140.99 182.594 1140.51 182.825C1140.04 183.054 1139.6 183.376 1139.2 183.793C1138.8 184.204 1138.44 184.681 1138.14 185.225ZM1160.84 190.901L1159.96 192.463L1154.86 189.584L1149.51 199.067L1147.62 198.002L1153.85 186.958L1160.84 190.901ZM1165.82 205.777L1169.03 200.092C1169.27 199.656 1169.4 199.229 1169.4 198.809C1169.41 198.386 1169.3 197.989 1169.05 197.616C1168.8 197.243 1168.42 196.913 1167.91 196.625C1167.44 196.357 1166.97 196.202 1166.52 196.162C1166.07 196.126 1165.67 196.183 1165.32 196.333C1164.97 196.487 1164.71 196.717 1164.54 197.024L1162.65 195.959C1162.87 195.564 1163.2 195.23 1163.62 194.957C1164.04 194.685 1164.53 194.499 1165.09 194.401C1165.66 194.3 1166.26 194.309 1166.9 194.429C1167.56 194.545 1168.22 194.792 1168.88 195.168C1169.69 195.621 1170.32 196.156 1170.78 196.774C1171.24 197.395 1171.49 198.079 1171.53 198.826C1171.58 199.57 1171.37 200.354 1170.9 201.177L1168 206.322C1167.79 206.689 1167.6 207.098 1167.43 207.547C1167.26 208.001 1167.16 208.414 1167.12 208.786L1167.03 208.949L1165.06 207.838C1165.09 207.567 1165.18 207.235 1165.32 206.844C1165.48 206.446 1165.64 206.09 1165.82 205.777ZM1168.86 201.154L1168.13 202.492L1166.22 201.416C1165.68 201.112 1165.18 200.886 1164.71 200.737C1164.24 200.58 1163.81 200.507 1163.43 200.515C1163.05 200.524 1162.71 200.616 1162.42 200.79C1162.12 200.957 1161.88 201.211 1161.69 201.551C1161.49 201.898 1161.39 202.259 1161.39 202.633C1161.38 203.007 1161.49 203.368 1161.71 203.714C1161.94 204.058 1162.28 204.36 1162.74 204.621C1163.32 204.947 1163.9 205.113 1164.48 205.117C1165.06 205.122 1165.58 205.02 1166.04 204.812C1166.5 204.608 1166.84 204.345 1167.05 204.023L1167.34 205.386C1167.14 205.645 1166.83 205.889 1166.42 206.117C1166.01 206.345 1165.54 206.519 1165.01 206.639C1164.49 206.756 1163.92 206.784 1163.32 206.723C1162.73 206.658 1162.13 206.457 1161.54 206.119C1160.79 205.697 1160.21 205.18 1159.81 204.569C1159.42 203.962 1159.21 203.325 1159.17 202.659C1159.14 201.989 1159.3 201.348 1159.65 200.736C1159.98 200.144 1160.39 199.688 1160.88 199.37C1161.36 199.044 1161.91 198.855 1162.51 198.801C1163.12 198.74 1163.78 198.805 1164.48 198.994C1165.18 199.182 1165.91 199.49 1166.66 199.916L1168.86 201.154ZM1175.33 209.687L1184.96 204.506L1186.86 205.577L1180.63 216.621L1178.73 215.55L1183.27 207.497L1173.64 212.677L1171.76 211.618L1177.99 200.574L1179.87 201.633L1175.33 209.687ZM1186.19 199.923L1187.72 200.787C1187.42 201.318 1187.03 201.721 1186.55 201.998C1186.08 202.269 1185.54 202.391 1184.96 202.365C1184.37 202.339 1183.77 202.15 1183.14 201.797C1182.19 201.263 1181.59 200.589 1181.32 199.775C1181.06 198.957 1181.16 198.147 1181.61 197.344L1183.15 198.208C1182.92 198.609 1182.84 199.028 1182.89 199.465C1182.95 199.902 1183.26 200.277 1183.82 200.592C1184.36 200.899 1184.84 200.965 1185.24 200.789C1185.65 200.613 1185.96 200.325 1186.19 199.923ZM1196.28 205.856L1190.13 216.447L1188.42 215.486L1194.3 204.739L1196.28 205.856ZM1186.39 218.617C1186.56 218.31 1186.8 218.104 1187.1 217.996C1187.41 217.893 1187.75 217.945 1188.12 218.152C1188.48 218.355 1188.69 218.616 1188.76 218.935C1188.84 219.257 1188.8 219.571 1188.62 219.878C1188.46 220.17 1188.22 220.366 1187.9 220.466C1187.59 220.569 1187.26 220.519 1186.9 220.316C1186.53 220.109 1186.31 219.846 1186.24 219.527C1186.17 219.213 1186.22 218.909 1186.39 218.617Z" fill="#C4C4C4"/>
<path d="M1093.81 293.686C1087.42 300.32 1188.2 276.284 1240.23 216.246C1292.25 156.208 1239.57 64.2618 1153.93 143.2C1186.2 62.4137 1075.52 29.2233 1054.81 131.159C1039.15 208.24 1100.21 287.053 1093.81 293.686Z" stroke="#909ADE" stroke-opacity="0.57" stroke-width="11"/>
</svg>
