<svg width="41" height="36" viewBox="0 0 41 36" fill="none" xmlns="http://www.w3.org/2000/svg">
<path d="M36.9435 0.122978C36.732 0.313503 36.245 0.976933 36.1072 1.25932C35.9246 1.63016 35.8477 1.95337 35.8253 2.43648C35.8028 2.9264 35.8317 3.12713 36.0239 3.79736C36.1873 4.36553 36.2866 4.87246 36.3187 5.29774C36.3443 5.66858 36.3091 5.66177 36.1072 5.27392C36.0239 5.11402 35.7964 4.69214 35.601 4.33151C35.2261 3.64086 35.0819 3.31425 34.9634 2.87877C34.8224 2.37184 34.7038 2.26297 34.3354 2.29359C33.9317 2.32421 33.7266 2.4739 33.3998 2.97743C33.1403 3.37209 33.0473 3.56941 32.9672 3.87561C32.8743 4.22604 32.8551 4.52884 32.9 4.91329C32.948 5.34877 33.0281 5.61074 33.2364 6.05983C33.4895 6.59057 33.6978 7.12812 33.7683 7.41391C33.8035 7.5636 33.842 7.90042 33.8612 8.23044C33.9028 8.9483 34.0054 9.78184 34.2072 11.1155C34.2328 11.2686 34.2232 11.3367 34.1431 11.602C34.0502 11.9048 34.047 11.9116 33.8035 12.1328C33.5664 12.3505 33.3966 12.473 32.5635 13.048C31.8554 13.5345 31.2787 14.0856 31.0256 14.5211C30.8398 14.8443 30.8141 14.8103 30.9006 14.3238C30.9679 13.9189 30.9968 12.9255 30.9455 12.6499C30.8622 12.1906 30.5898 11.8062 30.2534 11.6735C30.1541 11.6326 29.9939 11.5408 29.901 11.4693C29.6511 11.2788 29.3979 11.2142 28.9782 11.2346C28.6674 11.2482 28.6193 11.2618 28.3983 11.3775C27.9721 11.602 27.6645 11.9899 27.2833 12.7826C26.9468 13.4834 26.7578 14.1026 26.3797 15.7391C25.9504 17.5899 25.7389 18.2329 25.4666 18.5357C25.3961 18.6106 25.1494 18.8181 24.9155 18.995C24.3612 19.4135 24.0568 19.6959 23.7748 20.0463C23.0956 20.9003 22.8328 21.7542 22.7912 23.241C22.7784 23.7105 22.7591 23.935 22.7143 24.1085C22.6822 24.2378 22.5957 24.5644 22.5252 24.8366C22.1568 26.2689 21.8428 28.3205 21.7018 30.2461C21.6377 31.1307 21.6409 31.2702 21.7338 31.8451C21.7787 32.1173 21.8876 32.7808 21.9741 33.3251C22.0607 33.8661 22.16 34.4648 22.192 34.652L22.2465 34.9922L22.3458 34.9888C22.5605 34.9786 24.893 34.1518 25.8318 33.7504C26.6168 33.417 27.5043 32.9883 28.4303 32.4916C29.5838 31.8758 29.9971 31.624 30.0452 31.5185C30.0644 31.4709 30.1317 31.032 30.1957 30.5421C30.4713 28.3749 30.7821 27.1535 31.362 25.9253C31.7914 25.0169 32.0188 24.6971 33.0922 23.5097C33.419 23.1457 33.9829 22.5163 34.345 22.1148C35.0627 21.3119 35.5017 20.856 36.088 20.3049C36.5398 19.883 36.9755 19.4101 37.1261 19.1787C37.4273 18.7092 37.6195 18.1513 37.863 17.0115C38.1642 15.6166 38.3436 15.0076 38.6512 14.3544C38.8435 13.9427 39.0101 13.7386 39.6285 13.1432C40.2212 12.5751 40.6185 12.1362 40.7755 11.8776C40.8364 11.7721 40.9165 11.6428 40.9517 11.5918C41.0094 11.5 41.0094 11.4693 40.9774 11.0985C40.9582 10.8774 40.9197 10.0642 40.8909 9.28852C40.8652 8.51282 40.83 7.53298 40.814 7.11111C40.798 6.68924 40.7755 6.03261 40.7627 5.64816L40.7403 4.95071L40.4327 3.43673L40.1251 1.92274L40.029 1.91254C39.9777 1.90574 39.9104 1.87852 39.8848 1.8547C39.8592 1.82748 39.7214 1.77305 39.5836 1.73563C39.3401 1.66418 39.1831 1.66078 39.0005 1.71861C38.9044 1.74923 38.6705 1.5485 38.5743 1.35118C38.4846 1.16405 38.4494 0.759193 38.5006 0.517635C38.5167 0.439384 38.5231 0.367939 38.5103 0.361134C38.4878 0.344124 37.1325 0.000499725 37.0941 0.000499725C37.0845 0.000499725 37.0172 0.0549355 36.9435 0.122978ZM30.529 16.2903C30.4681 16.5624 30.388 16.8074 30.3591 16.8074C30.3495 16.8074 30.3559 16.7428 30.372 16.6611C30.4136 16.474 30.5642 15.9841 30.5802 15.9977C30.5866 16.0045 30.5642 16.1372 30.529 16.2903Z" fill="#909ADE"/>
<path d="M2.67097 1.43248C2.25124 1.49372 2.2192 1.55836 2.1423 2.51778C2.07501 3.33091 2.05259 3.4704 1.99491 3.49422C1.97248 3.50443 1.87316 3.43978 1.77383 3.35473C1.67451 3.26967 1.49829 3.1506 1.38294 3.09276C1.1971 2.9975 1.14584 2.98729 0.976025 3.0009C0.844659 3.01451 0.710089 3.05533 0.56911 3.13018L0.357643 3.24245L0.335214 3.51803C0.325602 3.67113 0.31599 3.89908 0.31599 4.03177C0.31599 4.28693 0.261521 4.81768 0.155788 5.58998C0.00519709 6.7059 -0.0332515 7.52583 0.0276255 8.29473C0.0436457 8.51247 0.0724822 8.96156 0.0917065 9.28818C0.149379 10.2476 0.280746 12.0235 0.335214 12.5203C0.389683 13.0408 0.444152 13.3096 0.540274 13.5103C0.65562 13.7485 1.07535 14.1737 1.78985 14.7827C2.66136 15.5244 2.81515 15.6945 3.06507 16.2151C3.38227 16.8819 3.60014 17.5079 4.08075 19.1376C4.42038 20.2943 4.80807 20.8251 5.99998 21.7845C6.75613 22.3901 6.92915 22.5466 7.87755 23.4754C8.27486 23.8632 8.80032 24.3668 9.04703 24.5981C9.94737 25.435 10.5081 26.0747 10.9246 26.7517C11.1585 27.1293 11.5142 27.871 11.7 28.378C12.0172 29.2285 12.3825 30.654 12.6003 31.8754C12.6612 32.219 12.7221 32.5116 12.7381 32.5286C12.7958 32.5899 14.3209 33.2805 15.1347 33.6139C16.647 34.2366 17.698 34.57 19.8351 35.1109C20.3958 35.2538 20.399 35.2538 20.4855 35.1926C20.6393 35.0769 20.8283 34.5938 20.9341 34.0562C21.184 32.7804 21.1135 30.916 20.7386 28.9699C20.4471 27.4594 20.1395 26.3128 19.5243 24.4552C19.4442 24.2137 19.4057 24.0265 19.3801 23.7407C19.2904 22.6929 19.1526 22.1043 18.8578 21.4851C18.5022 20.7366 17.9351 20.1514 16.9707 19.5356C16.7368 19.3859 16.474 19.1988 16.3907 19.1206C16.0735 18.8246 15.8044 18.1747 15.2757 16.4566C14.8912 15.2012 14.6381 14.497 14.3658 13.9356C13.8948 12.9592 13.6 12.5679 13.1322 12.2889C12.8406 12.1154 12.5939 12.0644 12.2607 12.1086C11.8986 12.1596 11.6968 12.2379 11.4276 12.442C11.3059 12.5339 11.1233 12.6632 11.0175 12.7346C10.6715 12.9694 10.5369 13.2688 10.5113 13.8709C10.476 14.7385 10.7228 15.8374 11.3219 17.4807C11.5174 18.025 11.5622 18.2156 11.4469 18.0523C11.3507 17.9094 10.7292 16.0654 10.7292 15.9191C10.7292 15.8136 10.4696 15.4462 10.1877 15.1536C9.85445 14.8032 9.48919 14.5412 8.72663 14.1023C8.01533 13.6906 7.65007 13.4525 7.45782 13.2756C7.27199 13.0986 7.08936 12.6427 7.1214 12.4284C7.17587 12.0576 7.24636 10.7749 7.26558 9.78149C7.29121 8.66897 7.29121 8.65536 7.38733 8.31855C7.4418 8.13143 7.57317 7.74357 7.68211 7.45779C7.94804 6.75693 7.98329 6.58342 7.98649 6.02206C7.9897 5.30759 7.86153 4.92315 7.41937 4.30054C7.05411 3.79021 6.79779 3.6235 6.38126 3.6235C6.00959 3.6235 5.90706 3.74258 5.79492 4.30394C5.75647 4.49106 5.67637 4.78025 5.61229 4.94356C5.45529 5.36543 4.69593 7.06313 4.65748 7.08014C4.60942 7.10056 4.59981 6.60043 4.64146 6.20918C4.66069 6.02206 4.73117 5.624 4.79526 5.3246C4.90099 4.82448 4.9106 4.73602 4.9106 4.25291C4.9106 3.65072 4.85613 3.37854 4.65748 2.95327C4.50369 2.62325 4.36591 2.43953 3.94939 1.98704C3.45276 1.44609 3.23168 1.35083 2.67097 1.43248Z" fill="#909ADE"/>
</svg>
