<svg width="41" height="36" viewBox="0 0 41 36" fill="none" xmlns="http://www.w3.org/2000/svg">
<path d="M36.9435 0.12249C36.732 0.313015 36.245 0.976444 36.1072 1.25883C35.9246 1.62967 35.8477 1.95288 35.8253 2.43599C35.8028 2.92591 35.8317 3.12664 36.0239 3.79687C36.1873 4.36504 36.2866 4.87197 36.3187 5.29725C36.3443 5.66809 36.3091 5.66128 36.1072 5.27343C36.0239 5.11353 35.7964 4.69165 35.601 4.33102C35.2261 3.64037 35.0819 3.31376 34.9634 2.87828C34.8224 2.37135 34.7038 2.26248 34.3354 2.2931C33.9317 2.32372 33.7266 2.47342 33.3998 2.97694C33.1403 3.3716 33.0473 3.56893 32.9672 3.87512C32.8743 4.22555 32.8551 4.52835 32.9 4.9128C32.948 5.34828 33.0281 5.61025 33.2364 6.05934C33.4895 6.59008 33.6978 7.12763 33.7683 7.41342C33.8035 7.56312 33.842 7.89993 33.8612 8.22995C33.9028 8.94781 34.0054 9.78135 34.2072 11.115C34.2328 11.2681 34.2232 11.3362 34.1431 11.6015C34.0502 11.9043 34.047 11.9111 33.8035 12.1323C33.5664 12.35 33.3966 12.4725 32.5635 13.0475C31.8554 13.534 31.2787 14.0851 31.0256 14.5206C30.8398 14.8438 30.8141 14.8098 30.9006 14.3233C30.9679 13.9184 30.9968 12.925 30.9455 12.6494C30.8622 12.1901 30.5898 11.8057 30.2534 11.673C30.1541 11.6322 29.9939 11.5403 29.901 11.4688C29.6511 11.2783 29.3979 11.2137 28.9782 11.2341C28.6674 11.2477 28.6193 11.2613 28.3983 11.377C27.9721 11.6015 27.6645 11.9894 27.2833 12.7821C26.9468 13.483 26.7578 14.1022 26.3797 15.7386C25.9504 17.5894 25.7389 18.2324 25.4666 18.5352C25.3961 18.6101 25.1494 18.8176 24.9155 18.9945C24.3612 19.413 24.0568 19.6954 23.7748 20.0458C23.0956 20.8998 22.8328 21.7537 22.7912 23.2405C22.7784 23.71 22.7591 23.9345 22.7143 24.108C22.6822 24.2373 22.5957 24.5639 22.5252 24.8361C22.1568 26.2684 21.8428 28.32 21.7018 30.2456C21.6377 31.1302 21.6409 31.2697 21.7338 31.8447C21.7787 32.1168 21.8876 32.7803 21.9741 33.3246C22.0607 33.8656 22.16 34.4644 22.192 34.6515L22.2465 34.9917L22.3458 34.9883C22.5605 34.9781 24.893 34.1514 25.8318 33.7499C26.6168 33.4165 27.5043 32.9878 28.4303 32.4911C29.5838 31.8753 29.9971 31.6235 30.0452 31.518C30.0644 31.4704 30.1317 31.0315 30.1957 30.5416C30.4713 28.3744 30.7821 27.153 31.362 25.9248C31.7914 25.0164 32.0188 24.6966 33.0922 23.5093C33.419 23.1452 33.9829 22.5158 34.345 22.1144C35.0627 21.3114 35.5017 20.8555 36.088 20.3044C36.5398 19.8825 36.9755 19.4096 37.1261 19.1782C37.4273 18.7087 37.6195 18.1508 37.863 17.011C38.1642 15.6161 38.3436 15.0071 38.6512 14.3539C38.8435 13.9423 39.0101 13.7381 39.6285 13.1427C40.2212 12.5746 40.6185 12.1357 40.7755 11.8771C40.8364 11.7716 40.9165 11.6424 40.9517 11.5913C41.0094 11.4995 41.0094 11.4688 40.9774 11.098C40.9582 10.8769 40.9197 10.0637 40.8909 9.28803C40.8652 8.51233 40.83 7.5325 40.814 7.11062C40.798 6.68875 40.7755 6.03212 40.7627 5.64767L40.7403 4.95022L40.4327 3.43624L40.1251 1.92226L40.029 1.91205C39.9777 1.90525 39.9104 1.87803 39.8848 1.85421C39.8592 1.827 39.7214 1.77256 39.5836 1.73514C39.3401 1.66369 39.1831 1.66029 39.0005 1.71812C38.9044 1.74874 38.6705 1.54802 38.5743 1.35069C38.4846 1.16357 38.4494 0.758705 38.5006 0.517147C38.5167 0.438896 38.5231 0.367451 38.5103 0.360645C38.4878 0.343636 37.1325 1.14441e-05 37.0941 1.14441e-05C37.0845 1.14441e-05 37.0172 0.0544472 36.9435 0.12249ZM30.529 16.2898C30.4681 16.562 30.388 16.8069 30.3591 16.8069C30.3495 16.8069 30.3559 16.7423 30.372 16.6606C30.4136 16.4735 30.5642 15.9836 30.5802 15.9972C30.5866 16.004 30.5642 16.1367 30.529 16.2898Z" fill="white"/>
<path d="M2.67097 1.43199C2.25124 1.49323 2.2192 1.55787 2.1423 2.5173C2.07501 3.33042 2.05259 3.46991 1.99491 3.49373C1.97248 3.50394 1.87316 3.43929 1.77383 3.35424C1.67451 3.26918 1.49829 3.15011 1.38294 3.09227C1.1971 2.99701 1.14584 2.9868 0.976025 3.00041C0.844659 3.01402 0.710089 3.05484 0.56911 3.12969L0.357643 3.24197L0.335214 3.51755C0.325602 3.67064 0.31599 3.89859 0.31599 4.03128C0.31599 4.28644 0.261521 4.81719 0.155788 5.58949C0.00519709 6.70541 -0.0332515 7.52534 0.0276255 8.29424C0.0436457 8.51198 0.0724822 8.96107 0.0917065 9.28769C0.149379 10.2471 0.280746 12.0231 0.335214 12.5198C0.389683 13.0403 0.444152 13.3091 0.540274 13.5098C0.65562 13.748 1.07535 14.1733 1.78985 14.7822C2.66136 15.5239 2.81515 15.694 3.06507 16.2146C3.38227 16.8814 3.60014 17.5074 4.08075 19.1371C4.42038 20.2938 4.80807 20.8246 5.99998 21.784C6.75613 22.3896 6.92915 22.5461 7.87755 23.4749C8.27486 23.8627 8.80032 24.3663 9.04703 24.5976C9.94737 25.4346 10.5081 26.0742 10.9246 26.7512C11.1585 27.1289 11.5142 27.8705 11.7 28.3775C12.0172 29.228 12.3825 30.6535 12.6003 31.8749C12.6612 32.2186 12.7221 32.5111 12.7381 32.5282C12.7958 32.5894 14.3209 33.28 15.1347 33.6135C16.647 34.2361 17.698 34.5695 19.8351 35.1104C20.3958 35.2533 20.399 35.2533 20.4855 35.1921C20.6393 35.0764 20.8283 34.5933 20.9341 34.0557C21.184 32.7799 21.1135 30.9155 20.7386 28.9694C20.4471 27.4589 20.1395 26.3123 19.5243 24.4547C19.4442 24.2132 19.4057 24.026 19.3801 23.7403C19.2904 22.6924 19.1526 22.1038 18.8578 21.4846C18.5022 20.7361 17.9351 20.1509 16.9707 19.5351C16.7368 19.3854 16.474 19.1983 16.3907 19.1201C16.0735 18.8241 15.8044 18.1742 15.2757 16.4561C14.8912 15.2007 14.6381 14.4965 14.3658 13.9351C13.8948 12.9587 13.6 12.5674 13.1322 12.2884C12.8406 12.1149 12.5939 12.0639 12.2607 12.1081C11.8986 12.1591 11.6968 12.2374 11.4276 12.4415C11.3059 12.5334 11.1233 12.6627 11.0175 12.7341C10.6715 12.9689 10.5369 13.2683 10.5113 13.8705C10.476 14.738 10.7228 15.8369 11.3219 17.4802C11.5174 18.0246 11.5622 18.2151 11.4469 18.0518C11.3507 17.9089 10.7292 16.0649 10.7292 15.9186C10.7292 15.8131 10.4696 15.4457 10.1877 15.1531C9.85445 14.8027 9.48919 14.5407 8.72663 14.1018C8.01533 13.6901 7.65007 13.452 7.45782 13.2751C7.27199 13.0982 7.08936 12.6423 7.1214 12.4279C7.17587 12.0571 7.24636 10.7745 7.26558 9.78101C7.29121 8.66849 7.29121 8.65488 7.38733 8.31806C7.4418 8.13094 7.57317 7.74309 7.68211 7.4573C7.94804 6.75644 7.98329 6.58293 7.98649 6.02157C7.9897 5.30711 7.86153 4.92266 7.41937 4.30005C7.05411 3.78972 6.79779 3.62301 6.38126 3.62301C6.00959 3.62301 5.90706 3.74209 5.79492 4.30346C5.75647 4.49058 5.67637 4.77976 5.61229 4.94307C5.45529 5.36494 4.69593 7.06264 4.65748 7.07965C4.60942 7.10007 4.59981 6.59994 4.64146 6.20869C4.66069 6.02157 4.73117 5.62351 4.79526 5.32412C4.90099 4.82399 4.9106 4.73553 4.9106 4.25242C4.9106 3.65023 4.85613 3.37806 4.65748 2.95278C4.50369 2.62276 4.36591 2.43904 3.94939 1.98655C3.45276 1.4456 3.23168 1.35034 2.67097 1.43199Z" fill="white"/>
</svg>
