<svg width="14" height="14" viewBox="0 0 14 14" fill="none" xmlns="http://www.w3.org/2000/svg">
<path d="M13.8235 12.9915L9.80674 8.97182C10.5986 8.02213 11.0749 6.80848 11.0749 5.48294C11.0749 2.45886 8.59309 0 5.54032 0C2.48755 0 0 2.46173 0 5.48581C0 8.50989 2.48181 10.9687 5.53458 10.9687C6.83144 10.9687 8.025 10.524 8.97182 9.78092L13.003 13.8121C13.2382 14.0473 13.5883 14.0473 13.8235 13.8121C14.0588 13.5768 14.0588 13.2268 13.8235 12.9915ZM1.17635 5.48581C1.17635 3.11015 3.13311 1.17922 5.53458 1.17922C7.93606 1.17922 9.89282 3.11015 9.89282 5.48581C9.89282 7.86146 7.93606 9.7924 5.53458 9.7924C3.13311 9.7924 1.17635 7.85859 1.17635 5.48581Z" fill="#C4C4C4"/>
</svg>
