<svg width="138" height="138" viewBox="0 0 138 138" fill="none" xmlns="http://www.w3.org/2000/svg">
<path d="M117.344 110.124C115.619 106.972 117.823 103.777 121.582 99.816C127.545 93.5228 134.04 78.9451 128.013 64.1331C128.045 64.0479 126.821 61.5562 126.863 61.471L124.372 61.3432C123.573 61.2261 96.3024 61.1729 68.9998 61.1729C41.6972 61.1729 14.4265 61.2261 13.6279 61.3432C13.6279 61.3432 9.95418 64.0479 9.98612 64.1225C3.95911 78.9344 10.4547 93.5122 16.4178 99.8054C20.1767 103.767 22.3809 106.972 20.6559 110.113C18.9841 113.169 13.9899 113.616 13.9899 113.616C13.9899 113.616 15.14 116.747 17.9192 118.429C20.4855 119.984 23.6374 120.357 25.8204 120.41C25.8204 120.41 34.3391 132.198 56.6156 132.198H81.4052C103.682 132.198 112.2 120.41 112.2 120.41C114.383 120.357 117.535 119.995 120.102 118.429C122.881 116.747 124.031 113.616 124.031 113.616C124.031 113.616 119.026 113.18 117.344 110.124Z" fill="#543930"/>
<path d="M68.9883 132.209V119.122L108.579 115.991L112.178 120.421C112.178 120.421 103.66 132.209 81.3831 132.209H68.9883Z" fill="url(#paint0_radial_580_9)"/>
<path d="M112.084 114.713C106.152 105.705 119.303 102.351 119.303 102.351L119.314 102.361C117.024 105.204 115.992 107.685 117.333 110.124C119.005 113.18 123.999 113.627 123.999 113.627C123.999 113.627 117.205 119.676 112.084 114.713Z" fill="url(#paint1_radial_580_9)"/>
<path d="M128.046 64.1222C133.934 78.4657 127.737 93.2351 121.933 99.4644C121.135 100.316 117.759 103.639 116.993 106.279C116.993 106.279 103.767 87.847 99.8273 77.0068C99.0286 74.8239 98.3045 72.5665 98.2087 70.2451C98.1342 68.4987 98.411 66.4223 99.412 64.9422C100.647 63.1213 127.343 62.5889 127.343 62.5889C127.343 62.6102 128.046 64.1222 128.046 64.1222Z" fill="url(#paint2_radial_580_9)"/>
<path d="M9.98528 64.1222C4.10734 78.4657 10.2941 93.2351 16.0975 99.4644C16.8961 100.316 20.2717 103.639 21.0384 106.279C21.0384 106.279 34.2637 87.847 38.2036 77.0068C39.0023 74.8239 39.7264 72.5665 39.8222 70.2451C39.8967 68.4987 39.6199 66.4223 38.6189 64.9422C37.3837 63.1213 35.9462 63.6111 33.8591 63.6111C29.8659 63.6111 12.4025 62.5889 11.0501 62.5889C11.0501 62.6102 9.98528 64.1222 9.98528 64.1222Z" fill="url(#paint3_radial_580_9)"/>
<path d="M69.0416 132.209V119.122L29.4507 115.991L25.8516 120.421C25.8516 120.421 34.3703 132.209 56.6468 132.209H69.0416Z" fill="url(#paint4_radial_580_9)"/>
<path d="M25.9488 114.713C31.88 105.705 18.7292 102.351 18.7292 102.351L18.7185 102.361C21.0079 105.204 22.0408 107.685 20.6991 110.124C19.0273 113.18 14.0332 113.627 14.0332 113.627C14.0332 113.627 20.8269 119.676 25.9488 114.713Z" fill="url(#paint5_radial_580_9)"/>
<path d="M106.855 69.3936H31.1447C22.9774 69.3936 16.3008 76.5067 16.3008 85.2065C16.3008 93.9063 22.9774 101.019 31.1447 101.019H106.866C115.033 101.019 121.71 93.9063 121.71 85.2065C121.71 76.5067 115.022 69.3936 106.855 69.3936Z" fill="#E59600"/>
<path d="M69.0003 14.8525C44.8923 14.8525 22.5625 40.6324 22.5625 77.7422C22.5625 114.65 45.5738 132.89 69.0003 132.89C92.4269 132.89 115.438 114.65 115.438 77.7422C115.438 40.6431 93.1084 14.8525 69.0003 14.8525Z" fill="#FFCA28"/>
<path d="M74.346 93.7998C74.2028 93.7409 74.0524 93.7015 73.8988 93.6826H64.1022C63.9532 93.7039 63.8041 93.7359 63.655 93.7998C62.7712 94.1618 62.2814 95.0776 62.6966 96.0572C63.1226 97.0369 65.0712 99.7842 69.0005 99.7842C72.9298 99.7842 74.8785 97.0369 75.3044 96.0572C75.7303 95.0776 75.2405 94.1618 74.346 93.7998Z" fill="#E59600"/>
<path d="M80.6599 104.896C76.2514 107.515 61.7802 107.515 57.3717 104.896C54.8374 103.384 52.2498 105.695 53.304 107.995C54.3369 110.252 62.2274 115.512 69.0531 115.512C75.8787 115.512 83.6627 110.263 84.7063 107.995C85.7498 105.695 83.1942 103.394 80.6599 104.896Z" fill="#795548"/>
<path d="M46.5325 87.9328C50.2493 87.9328 53.2624 84.8102 53.2624 80.9581C53.2624 77.1061 50.2493 73.9834 46.5325 73.9834C42.8158 73.9834 39.8027 77.1061 39.8027 80.9581C39.8027 84.8102 42.8158 87.9328 46.5325 87.9328Z" fill="#404040"/>
<path d="M91.4681 87.9328C95.1849 87.9328 98.1979 84.8102 98.1979 80.9581C98.1979 77.1061 95.1849 73.9834 91.4681 73.9834C87.7513 73.9834 84.7383 77.1061 84.7383 80.9581C84.7383 84.8102 87.7513 87.9328 91.4681 87.9328Z" fill="#404040"/>
<path d="M56.5305 68.435C55.2527 66.7419 52.2817 64.2715 46.5316 64.2715C40.7814 64.2715 37.8105 66.7419 36.5327 68.435C35.9683 69.1911 36.1068 70.0536 36.5008 70.5754C36.8628 71.0652 37.9383 71.5124 39.1309 71.1078C40.3236 70.7031 42.6449 69.4999 46.5316 69.4786C50.4183 69.5105 52.7503 70.7031 53.9323 71.1078C55.1142 71.5124 56.2004 71.0652 56.5624 70.5754C56.9564 70.0536 57.0948 69.1911 56.5305 68.435Z" fill="#6D4C41"/>
<path d="M101.478 68.435C100.2 66.7419 97.229 64.2715 91.4789 64.2715C85.7287 64.2715 82.7578 66.7419 81.48 68.435C80.9156 69.1911 81.054 70.0536 81.448 70.5754C81.8101 71.0652 82.8856 71.5124 84.0782 71.1078C85.2708 70.7031 87.5922 69.4999 91.4789 69.4786C95.3655 69.5105 97.6975 70.7031 98.8795 71.1078C100.072 71.5124 101.148 71.0652 101.51 70.5754C101.893 70.0536 102.042 69.1911 101.478 68.435Z" fill="#6D4C41"/>
<path d="M124.521 34.2964C121.135 29.1745 113.564 22.3169 106.76 21.8697C105.674 15.3315 98.6669 9.79433 91.8945 7.64335C73.5685 1.83995 61.6316 8.34614 55.2319 11.8388C53.9009 12.5629 45.2969 17.3334 39.2806 13.9153C35.511 11.7749 35.5855 5.97154 35.5855 5.97154C35.5855 5.97154 23.7764 10.4652 27.8122 23.009C23.7551 23.1794 18.4309 24.8832 15.6197 30.5801C12.2655 37.3631 13.4581 43.0388 14.4271 45.7541C10.9344 48.7144 6.54726 55.0289 9.56076 63.2175C11.8289 69.383 20.8801 72.2155 20.8801 72.2155C20.2411 83.3111 22.3069 90.1474 23.4037 92.9054C23.5954 93.3846 24.2876 93.342 24.4047 92.8415C25.7677 87.3469 30.453 68.1904 29.9845 64.8468C29.9845 64.8468 45.7016 61.7268 60.6946 50.695C63.7507 48.4482 67.0517 46.5314 70.5657 45.1365C89.3921 37.64 93.332 50.4288 93.332 50.4288C93.332 50.4288 106.376 47.9264 110.316 66.05C111.796 72.8437 112.797 83.7158 113.639 91.3188C113.702 91.8512 114.427 91.9683 114.64 91.4678C115.96 88.4543 118.59 82.4593 119.218 76.3577C119.442 74.2067 125.235 71.3636 127.716 62.1421C131.059 49.8218 126.96 37.9914 124.521 34.2964Z" fill="#543930"/>
<path d="M119.176 76.4003C119.4 74.2493 125.192 71.4061 127.673 62.1846C127.94 61.2049 128.163 60.204 128.366 59.203C130.389 47.9902 126.758 37.7038 124.5 34.2963C121.37 29.5684 114.661 23.3604 108.293 22.0932C107.739 22.0187 107.196 21.9548 106.685 21.9229C106.685 21.9229 107.143 24.8938 105.94 27.2684C104.385 30.3458 101.223 31.0699 101.223 31.0699C117.824 47.6708 116.642 61.5563 119.176 76.4003Z" fill="url(#paint6_radial_580_9)"/>
<path d="M59.2357 9.74132C57.7236 10.4761 56.3819 11.2108 55.2213 11.8391C53.8902 12.5632 45.2863 17.3337 39.2699 13.9155C35.5642 11.8071 35.5642 6.18474 35.5749 5.98242C33.8711 8.1547 28.7173 23.6908 43.7848 24.7237C50.2804 25.1709 54.2948 19.5059 56.6588 14.7035C57.5213 12.9678 58.8737 10.4228 59.2357 9.74132Z" fill="url(#paint7_radial_580_9)"/>
<path d="M89.9982 7.07863C100.136 9.82593 105.087 14.9798 106.738 21.88C107.227 23.9032 107.802 42.7722 71.7787 21.3262C58.383 13.3506 62.0354 8.35644 63.6114 7.79207C69.7342 5.56655 78.6363 4.00123 89.9982 7.07863Z" fill="url(#paint8_radial_580_9)"/>
<path d="M35.5315 5.98223C35.5102 5.99288 35.4889 6.00353 35.4463 6.01418H35.4357C34.1472 6.55725 24.0099 11.2426 27.8008 22.9878L38.5876 24.7235C29.0466 15.0654 35.5741 5.96094 35.5741 5.96094L35.5315 5.98223Z" fill="url(#paint9_radial_580_9)"/>
<path d="M34.468 24.0735L27.8021 22.998C27.5465 22.998 26.652 23.0832 26.1729 23.1471C22.4246 23.6689 17.9949 25.6069 15.6096 30.5797C13.0327 35.9253 13.1072 40.5147 13.7994 43.5815C14.0017 44.6144 14.417 45.7644 14.417 45.7644C14.417 45.7644 17.718 42.6338 25.5659 42.4314L34.468 24.0735Z" fill="url(#paint10_radial_580_9)"/>
<path d="M14.0968 46.02C10.8171 48.9376 6.38733 55.4332 9.6564 63.4834C12.1162 69.5637 20.8692 72.2045 20.8692 72.2045C20.8692 72.2364 22.6156 72.7476 23.5207 72.7476L25.5652 42.4102C21.3697 42.4102 17.3446 43.6667 14.7357 45.4769C14.757 45.5408 14.0862 45.9774 14.0968 46.02Z" fill="url(#paint11_radial_580_9)"/>
<defs>
<radialGradient id="paint0_radial_580_9" cx="0" cy="0" r="1" gradientUnits="userSpaceOnUse" gradientTransform="translate(89.2022 113.313) scale(32.4447 15.9369)">
<stop offset="0.728" stop-color="#6D4C41" stop-opacity="0"/>
<stop offset="1" stop-color="#6D4C41"/>
</radialGradient>
<radialGradient id="paint1_radial_580_9" cx="0" cy="0" r="1" gradientUnits="userSpaceOnUse" gradientTransform="translate(121.159 108.486) rotate(154.924) scale(9.58737 7.11246)">
<stop offset="0.663" stop-color="#6D4C41"/>
<stop offset="1" stop-color="#6D4C41" stop-opacity="0"/>
</radialGradient>
<radialGradient id="paint2_radial_580_9" cx="0" cy="0" r="1" gradientUnits="userSpaceOnUse" gradientTransform="translate(96.3124 81.3669) rotate(-94.2783) scale(42.114 35.0993)">
<stop offset="0.725" stop-color="#6D4C41" stop-opacity="0"/>
<stop offset="1" stop-color="#6D4C41"/>
</radialGradient>
<radialGradient id="paint3_radial_580_9" cx="0" cy="0" r="1" gradientUnits="userSpaceOnUse" gradientTransform="translate(41.7182 81.3663) rotate(-85.7217) scale(42.114 35.0993)">
<stop offset="0.725" stop-color="#6D4C41" stop-opacity="0"/>
<stop offset="1" stop-color="#6D4C41"/>
</radialGradient>
<radialGradient id="paint4_radial_580_9" cx="0" cy="0" r="1" gradientUnits="userSpaceOnUse" gradientTransform="translate(48.8266 113.313) rotate(180) scale(32.4447 15.9369)">
<stop offset="0.728" stop-color="#6D4C41" stop-opacity="0"/>
<stop offset="1" stop-color="#6D4C41"/>
</radialGradient>
<radialGradient id="paint5_radial_580_9" cx="0" cy="0" r="1" gradientUnits="userSpaceOnUse" gradientTransform="translate(16.8733 108.487) rotate(25.0761) scale(9.58737 7.11246)">
<stop offset="0.663" stop-color="#6D4C41"/>
<stop offset="1" stop-color="#6D4C41" stop-opacity="0"/>
</radialGradient>
<radialGradient id="paint6_radial_580_9" cx="0" cy="0" r="1" gradientUnits="userSpaceOnUse" gradientTransform="translate(93.9625 59.147) rotate(72.0851) scale(49.3643 36.6271)">
<stop offset="0.699" stop-color="#6D4C41" stop-opacity="0"/>
<stop offset="1" stop-color="#6D4C41"/>
</radialGradient>
<radialGradient id="paint7_radial_580_9" cx="0" cy="0" r="1" gradientUnits="userSpaceOnUse" gradientTransform="translate(45.8366 5.32432) rotate(28.2026) scale(12.9434 15.3471)">
<stop offset="0.58" stop-color="#6D4C41"/>
<stop offset="1" stop-color="#6D4C41" stop-opacity="0"/>
</radialGradient>
<radialGradient id="paint8_radial_580_9" cx="0" cy="0" r="1" gradientUnits="userSpaceOnUse" gradientTransform="translate(74.7631 28.832) rotate(-157.19) scale(40.4808 22.7503)">
<stop offset="0.699" stop-color="#6D4C41" stop-opacity="0"/>
<stop offset="1" stop-color="#6D4C41"/>
</radialGradient>
<radialGradient id="paint9_radial_580_9" cx="0" cy="0" r="1" gradientUnits="userSpaceOnUse" gradientTransform="translate(40.6396 17.131) scale(11.8805 14.5334)">
<stop offset="0.702" stop-color="#6D4C41" stop-opacity="0"/>
<stop offset="1" stop-color="#6D4C41"/>
</radialGradient>
<radialGradient id="paint10_radial_580_9" cx="0" cy="0" r="1" gradientUnits="userSpaceOnUse" gradientTransform="translate(39.0058 38.1014) rotate(-164.942) scale(22.2827 20.8525)">
<stop offset="0.66" stop-color="#6D4C41" stop-opacity="0"/>
<stop offset="1" stop-color="#6D4C41"/>
</radialGradient>
<radialGradient id="paint11_radial_580_9" cx="0" cy="0" r="1" gradientUnits="userSpaceOnUse" gradientTransform="translate(33.7221 59.6169) rotate(7.83355) scale(23.3943 32.8729)">
<stop offset="0.598" stop-color="#6D4C41" stop-opacity="0"/>
<stop offset="1" stop-color="#6D4C41"/>
</radialGradient>
</defs>
</svg>
